<svg width="1200" height="900" viewBox="0 0 1200 900" fill="none" xmlns="http://www.w3.org/2000/svg">
  <defs>
    <radialGradient id="studyGlowA" cx="0" cy="0" r="1" gradientUnits="userSpaceOnUse" gradientTransform="translate(308 178) rotate(41) scale(680 560)">
      <stop stop-color="#7C3AED" stop-opacity="0.66"/>
      <stop offset="0.5" stop-color="#14B889" stop-opacity="0.26"/>
      <stop offset="1" stop-color="#090A0A" stop-opacity="0"/>
    </radialGradient>
    <radialGradient id="studyGlowB" cx="0" cy="0" r="1" gradientUnits="userSpaceOnUse" gradientTransform="translate(945 660) rotate(148) scale(560 440)">
      <stop stop-color="#F59E0B" stop-opacity="0.62"/>
      <stop offset="0.45" stop-color="#D9467C" stop-opacity="0.22"/>
      <stop offset="1" stop-color="#090A0A" stop-opacity="0"/>
    </radialGradient>
    <linearGradient id="studyPanel" x1="152" y1="124" x2="1008" y2="762" gradientUnits="userSpaceOnUse">
      <stop stop-color="#FFFFFF" stop-opacity="0.19"/>
      <stop offset="0.52" stop-color="#FFFFFF" stop-opacity="0.07"/>
      <stop offset="1" stop-color="#FFFFFF" stop-opacity="0.15"/>
    </linearGradient>
    <linearGradient id="studyAccent" x1="362" y1="254" x2="861" y2="644" gradientUnits="userSpaceOnUse">
      <stop stop-color="#7C3AED"/>
      <stop offset="0.48" stop-color="#14B889"/>
      <stop offset="1" stop-color="#F59E0B"/>
    </linearGradient>
    <filter id="studyShadow" x="70" y="68" width="1060" height="776" filterUnits="userSpaceOnUse" color-interpolation-filters="sRGB">
      <feDropShadow dx="0" dy="34" stdDeviation="36" flood-color="#000000" flood-opacity="0.36"/>
    </filter>
    <pattern id="studyGrid" width="58" height="58" patternUnits="userSpaceOnUse">
      <path d="M58 0H0V58" stroke="#FFF8ED" stroke-opacity="0.07"/>
      <circle cx="0" cy="0" r="2" fill="#FFF8ED" fill-opacity="0.09"/>
    </pattern>
  </defs>

  <rect width="1200" height="900" rx="48" fill="#090A0A"/>
  <rect width="1200" height="900" rx="48" fill="url(#studyGrid)"/>
  <rect width="1200" height="900" rx="48" fill="url(#studyGlowA)"/>
  <rect width="1200" height="900" rx="48" fill="url(#studyGlowB)"/>

  <g filter="url(#studyShadow)">
    <rect x="154" y="126" width="892" height="638" rx="48" fill="url(#studyPanel)" stroke="#FFF8ED" stroke-opacity="0.2"/>
    <rect x="218" y="204" width="300" height="456" rx="36" fill="#050706" fill-opacity="0.56" stroke="#FFF8ED" stroke-opacity="0.13"/>
    <rect x="574" y="204" width="368" height="456" rx="36" fill="#050706" fill-opacity="0.48" stroke="#FFF8ED" stroke-opacity="0.13"/>
  </g>

  <g transform="translate(254 248)">
    <rect x="0" y="0" width="228" height="58" rx="29" fill="#FFF8ED" fill-opacity="0.11" stroke="#FFF8ED" stroke-opacity="0.14"/>
    <circle cx="34" cy="29" r="13" fill="#14B889"/>
    <rect x="62" y="22" width="112" height="12" rx="6" fill="#FFF8ED" fill-opacity="0.62"/>

    <rect x="0" y="96" width="228" height="72" rx="26" fill="#FFF8ED" fill-opacity="0.1" stroke="#FFF8ED" stroke-opacity="0.13"/>
    <rect x="28" y="124" width="116" height="11" rx="5.5" fill="#FFF8ED" fill-opacity="0.62"/>
    <rect x="28" y="146" width="74" height="9" rx="4.5" fill="#FFF8ED" fill-opacity="0.24"/>
    <rect x="164" y="118" width="36" height="36" rx="18" fill="#7C3AED" fill-opacity="0.28" stroke="#7C3AED"/>

    <rect x="0" y="196" width="228" height="72" rx="26" fill="#FFF8ED" fill-opacity="0.1" stroke="#FFF8ED" stroke-opacity="0.13"/>
    <rect x="28" y="224" width="104" height="11" rx="5.5" fill="#FFF8ED" fill-opacity="0.62"/>
    <rect x="28" y="246" width="92" height="9" rx="4.5" fill="#FFF8ED" fill-opacity="0.24"/>
    <rect x="164" y="218" width="36" height="36" rx="18" fill="#F59E0B" fill-opacity="0.26" stroke="#F59E0B"/>

    <rect x="0" y="300" width="228" height="74" rx="28" fill="url(#studyAccent)" fill-opacity="0.78"/>
    <rect x="28" y="329" width="132" height="12" rx="6" fill="#FFF8ED" fill-opacity="0.78"/>
    <rect x="28" y="352" width="80" height="9" rx="4.5" fill="#090A0A" fill-opacity="0.25"/>
  </g>

  <g transform="translate(606 226)">
    <circle cx="190" cy="216" r="142" fill="#FFF8ED" fill-opacity="0.04" stroke="#FFF8ED" stroke-opacity="0.12" stroke-width="2"/>
    <circle cx="190" cy="216" r="92" fill="#FFF8ED" fill-opacity="0.045" stroke="#FFF8ED" stroke-opacity="0.12" stroke-width="2"/>
    <circle cx="190" cy="216" r="44" fill="url(#studyAccent)"/>
    <circle cx="190" cy="216" r="24" fill="#090A0A" fill-opacity="0.22"/>

    <g stroke-linecap="round">
      <path d="M190 216L98 144" stroke="#7C3AED" stroke-width="4" stroke-opacity="0.78"/>
      <path d="M190 216L316 150" stroke="#14B889" stroke-width="4" stroke-opacity="0.78"/>
      <path d="M190 216L108 294" stroke="#F59E0B" stroke-width="4" stroke-opacity="0.78"/>
      <path d="M190 216L306 302" stroke="#D9467C" stroke-width="4" stroke-opacity="0.68"/>
      <path d="M98 144L152 72L316 150L346 236L306 302L108 294L70 222Z" stroke="#FFF8ED" stroke-opacity="0.18" stroke-width="3" stroke-dasharray="8 10"/>
    </g>

    <g>
      <circle cx="98" cy="144" r="22" fill="#7C3AED"/>
      <circle cx="316" cy="150" r="22" fill="#14B889"/>
      <circle cx="108" cy="294" r="22" fill="#F59E0B"/>
      <circle cx="306" cy="302" r="22" fill="#D9467C"/>
      <circle cx="152" cy="72" r="16" fill="#FFF8ED" fill-opacity="0.72"/>
      <circle cx="346" cy="236" r="16" fill="#FFF8ED" fill-opacity="0.72"/>
      <circle cx="70" cy="222" r="16" fill="#FFF8ED" fill-opacity="0.72"/>
    </g>
  </g>

  <g>
    <rect x="680" y="620" width="226" height="54" rx="27" fill="#FFF8ED" fill-opacity="0.1" stroke="#FFF8ED" stroke-opacity="0.14"/>
    <rect x="708" y="642" width="104" height="10" rx="5" fill="#FFF8ED" fill-opacity="0.62"/>
    <rect x="832" y="638" width="46" height="18" rx="9" fill="#14B889"/>

    <rect x="850" y="112" width="142" height="58" rx="29" fill="#FFF8ED" fill-opacity="0.1" stroke="#FFF8ED" stroke-opacity="0.14"/>
    <circle cx="880" cy="141" r="12" fill="#F59E0B"/>
    <rect x="904" y="135" width="50" height="12" rx="6" fill="#FFF8ED" fill-opacity="0.58"/>
  </g>
</svg>
